<svg width="171" height="36" viewBox="0 0 171 36" fill="none" xmlns="http://www.w3.org/2000/svg">
<path d="M0 27.5437V9.37891H3.09074L9.12196 21.4349L15.1532 9.37891H18.2439V27.5437H15.0273V16.6935L9.72613 27.5437H8.51249L3.22194 16.6935V27.5437H0Z" fill="#F2F2F2"/>
<path d="M21.2422 27.5437V9.37891H33.1448V12.5818H24.6863V16.4647H31.6265V19.6729H24.6863V24.3398H33.1448V27.5437H21.2422Z" fill="#F2F2F2"/>
<path d="M36.1484 27.5437V9.37891H48.0532V12.5818H39.5883V16.4647H46.5274V19.6729H39.5936V24.3398H48.0585V27.5437H36.1484Z" fill="#F2F2F2"/>
<path d="M56.8034 27.5437V12.5818H51.0547V9.37891H66.0005L63.8313 12.5818H60.2507V27.5437H56.8034Z" fill="#F2F2F2"/>
<path d="M73.3855 24.1359V19.7713H69.0039V17.1236H73.3855V12.7852H76.0446V17.1236H80.4018V19.7713H76.0446V24.1359H73.3855Z" fill="#F2F2F2"/>
<path d="M92.0072 27.92C90.8844 27.9248 89.7711 27.7168 88.7271 27.3071C87.693 26.9007 86.7559 26.2845 85.976 25.4979C85.1467 24.6504 84.5042 23.6412 84.0894 22.5342C83.6288 21.3568 83.3984 19.9988 83.3984 18.4603C83.3984 16.4503 83.7864 14.7414 84.5624 13.3338C85.3383 11.9261 86.3738 10.8518 87.669 10.1109C88.9902 9.36585 90.4874 8.98265 92.0072 9.0006C94.3534 9.0006 96.1977 9.54316 97.5401 10.6283C98.8825 11.7134 99.7818 13.2477 100.238 15.2312L96.72 15.7359C96.3913 14.6774 95.8527 13.8305 95.1043 13.1952C94.3559 12.56 93.4 12.2385 92.2368 12.2308C91.08 12.2147 90.1174 12.4631 89.3492 12.9759C88.5811 13.4887 88.004 14.2177 87.6182 15.1629C87.2344 16.1046 87.0422 17.2062 87.0415 18.4676C87.0408 19.7291 87.233 20.8215 87.6182 21.745C87.9618 22.6205 88.5641 23.3726 89.3461 23.9027C90.1143 24.4155 91.0768 24.6803 92.2336 24.6971C92.9664 24.7243 93.6957 24.5862 94.3668 24.2931C95.0183 23.9966 95.5767 23.5306 95.9825 22.9446C96.422 22.3303 96.7341 21.5439 96.919 20.5854H94.0324V17.9324H100.593C100.615 18.1248 100.627 18.3179 100.631 18.5117C100.639 18.7898 100.642 18.9504 100.642 18.9913C100.642 20.732 100.29 22.275 99.5843 23.6204C98.9057 24.9339 97.8651 26.0293 96.5835 26.7792C95.2877 27.5404 93.7623 27.9207 92.0072 27.92Z" fill="#F2F2F2"/>
<path d="M103.645 27.5437V9.37891H111.344C111.52 9.37891 111.758 9.38485 112.06 9.39675C112.329 9.40712 112.598 9.43481 112.864 9.47965C113.952 9.64756 114.845 10.0047 115.542 10.5511C116.232 11.0894 116.763 11.8016 117.08 12.6133C117.419 13.497 117.587 14.4363 117.573 15.3817C117.573 16.9034 117.193 18.2044 116.431 19.2846C115.669 20.3648 114.478 21.0312 112.859 21.2838L111.34 21.3887H107.093V27.5437H103.645ZM107.093 18.1848H111.196C111.372 18.1848 111.568 18.1764 111.778 18.1596C111.976 18.1437 112.171 18.1085 112.361 18.0547C112.778 17.9573 113.153 17.7349 113.437 17.4176C113.687 17.1295 113.868 16.789 113.966 16.4217C114.161 15.7411 114.161 15.0202 113.966 14.3396C113.868 13.9723 113.687 13.6318 113.437 13.3437C113.153 13.0268 112.777 12.8044 112.361 12.7067C112.171 12.6528 111.976 12.6177 111.778 12.6017C111.567 12.585 111.373 12.5766 111.196 12.5766H107.093V18.1848ZM113.931 27.5437L110.334 20.1525L113.88 19.4704L117.832 27.5437H113.931Z" fill="#F2F2F2"/>
<path d="M120.832 27.5437V9.37891H132.736V12.5818H124.271V16.4647H131.215V19.6729H124.275V24.3398H132.74V27.5437H120.832Z" fill="#F2F2F2"/>
<path d="M135.738 27.5437V9.37891H147.642V12.5818H139.183V16.4647H146.119V19.6729H139.178V24.3398H147.638V27.5437H135.738Z" fill="#F2F2F2"/>
<path d="M156.392 27.5437V12.5818H150.645V9.37891H165.587L163.403 12.5818H159.837V27.5437H156.392Z" fill="#F2F2F2"/>
</svg>
